<svg width="16" height="14" fill="none" xmlns="http://www.w3.org/2000/svg"><path fill-rule="evenodd" clip-rule="evenodd" d="M8 8.0933C7.1796 9.2545 5.9078 10 4.48 10 2.0058 10 0 7.7614 0 5s2.0058-5 4.48-5C5.9078 0 7.1796.7455 8 1.9067 8.8204.7455 10.0922 0 11.52 0 13.9942 0 16 2.2386 16 5s-2.0058 5-4.48 5C10.0922 10 8.8204 9.2545 8 8.0933z" fill="#FB5F8A"/><mask id="a" maskUnits="userSpaceOnUse" x="0" y="0" width="16" height="10"><path fill-rule="evenodd" clip-rule="evenodd" d="M8 8.0933C7.1796 9.2545 5.9078 10 4.48 10 2.0058 10 0 7.7614 0 5s2.0058-5 4.48-5C5.9078 0 7.1796.7455 8 1.9067 8.8204.7455 10.0922 0 11.52 0 13.9942 0 16 2.2386 16 5s-2.0058 5-4.48 5C10.0922 10 8.8204 9.2545 8 8.0933z" fill="#fff"/></mask><g mask="url(#a)"><path fill="#FC719F" d="M0 0h16v16H0z"/><path fill="#ED5267" d="M0 0h16v16H0z"/></g><path fill-rule="evenodd" clip-rule="evenodd" d="M8 14c2.7614 0 8-5 8-9H0c0 4 5.2386 9 8 9z" fill="#FB5F8A"/><mask id="b" maskUnits="userSpaceOnUse" x="0" y="5" width="16" height="9"><path fill-rule="evenodd" clip-rule="evenodd" d="M8 14c2.7614 0 8-5 8-9H0c0 4 5.2386 9 8 9z" fill="#fff"/></mask><g mask="url(#b)"><path fill="#FC719F" d="M0 0h16v16H0z"/><path fill="#ED5267" d="M0 0h16v16H0z"/></g></svg>