<svg width="20" height="20" fill="none" xmlns="http://www.w3.org/2000/svg"><path fill-rule="evenodd" clip-rule="evenodd" d="M8.5882 4.3408c1.9513-1.9513 5.12-1.9463 7.0687.0023 1.9526 1.9527 1.9505 5.1206.0023 7.0688l-4.2473 4.2473c-1.9513 1.9513-5.12 1.9463-7.0687-.0023-1.9527-1.9527-1.9505-5.1206-.0024-7.0688l4.2474-4.2473zm1.4138 1.4146L5.7554 10.002c-1.1707 1.1707-1.1696 3.0691.002 4.2406 1.1692 1.1692 3.0701 1.1725 4.2406.0021l4.2467-4.2467c1.1706-1.1706 1.1695-3.069-.002-4.2406-1.1692-1.1692-3.0702-1.1725-4.2407-.002zm-2.1233-.7051L5.0503 7.8787l1.4142 1.4142 2.8284-2.8284-1.4142-1.4142zm5.6569 5.6568l-2.8285 2.8284 1.4142 1.4143 2.8285-2.8285-1.4142-1.4142zm-2.822-2.835c.387-.3869 1.0145-.3867 1.4077.0066.3906.3905.3883 1.026.0066 1.4077l-2.8415 2.8414c-.387.387-1.0145.3868-1.4077-.0065-.3905-.3905-.3882-1.026-.0065-1.4077l2.8414-2.8414z" fill="#3E4056"/><mask id="a" maskUnits="userSpaceOnUse" x="0" y="0" width="20" height="20"><path fill-rule="evenodd" clip-rule="evenodd" d="M8.5882 4.3408c1.9513-1.9513 5.12-1.9463 7.0687.0023 1.9526 1.9527 1.9505 5.1206.0023 7.0688l-4.2473 4.2473c-1.9513 1.9513-5.12 1.9463-7.0687-.0023-1.9527-1.9527-1.9505-5.1206-.0024-7.0688l4.2474-4.2473zm1.4138 1.4146L5.7554 10.002c-1.1707 1.1707-1.1696 3.0691.002 4.2406 1.1692 1.1692 3.0701 1.1725 4.2406.0021l4.2467-4.2467c1.1706-1.1706 1.1695-3.069-.002-4.2406-1.1692-1.1692-3.0702-1.1725-4.2407-.002zm-2.1233-.7051L5.0503 7.8787l1.4142 1.4142 2.8284-2.8284-1.4142-1.4142zm5.6569 5.6568l-2.8285 2.8284 1.4142 1.4143 2.8285-2.8285-1.4142-1.4142zm-2.822-2.835c.387-.3869 1.0145-.3867 1.4077.0066.3906.3905.3883 1.026.0066 1.4077l-2.8415 2.8414c-.387.387-1.0145.3868-1.4077-.0065-.3905-.3905-.3882-1.026-.0065-1.4077l2.8414-2.8414z" fill="#fff"/></mask><g mask="url(#a)"><path fill="#3E4056" d="M2 2h16v16H2z"/></g></svg>